<svg xmlns="http://www.w3.org/2000/svg" fill="none" viewBox="0 0 112 48">
  <g clip-path="url(#a)">
    <g fill="#0b0803" clip-path="url(#b)">
      <path d="M47.785 13.193A7.538 7.538 0 1 0 32.78 14.66a7.538 7.538 0 0 0 15.004-1.467m-5.62-5.027c.093 0 .161.019.247.042l.019.005c.033.168 0 .246-.088.39-.154.25-.326.49-.497.729-.302.423-.604.846-.811 1.328-.45 1.046-.344 2.265-.239 3.496.093 1.079.186 2.166-.09 3.156-.333 1.19-1.167 1.97-2.211 2.55-.058.01-.122.005-.183 0l-.038-.003-.024-.001-.01-.02c-.06-.112-.063-.12-.02-.248.056-.167.167-.338.272-.5q.06-.09.114-.179c.363-.605.719-1.258.83-1.964.14-.882.065-1.789-.009-2.696-.094-1.151-.188-2.303.154-3.402.42-1.35 1.402-2.054 2.584-2.683M65.534 35.092a7.348 7.348 0 1 0-14.596 1.706 7.348 7.348 0 0 0 14.596-1.706m-8.137-4.756c.975-.072 1.887.165 2.673.75 1.273.946 1.922 2.51 2.137 4.04.228 1.616.205 3.86-.847 5.213-.575.737-1.3 1.037-2.2 1.147a4 4 0 0 1-2.7-.723c-1.238-.893-1.873-2.36-2.103-3.83-.263-1.674-.253-4.017.832-5.43.577-.751 1.298-1.05 2.208-1.167M23.675.367c1.307-.171 2.787-.037 4.059.284.773.195 1.545.46 2.336.572.455.064.932.059 1.39.067.075 1.273.32 4.324.174 5.445a1.8 1.8 0 0 1-.65.001c-.242-.279-.355-.903-.5-1.265-.532-1.327-1.583-2.346-2.902-2.887-1.652-.678-3.625-.59-5.253.113-1.71.739-3.104 2.217-3.783 3.95-1.052 2.682-1.045 6.123.136 8.764.817 1.83 2.272 3.439 4.176 4.153 1.817.682 3.792.48 5.532-.317.777-.397 1.496-.986 1.959-1.733.261-.423.453-1.227.868-1.5l.116.046c.446.563.612 2.325.758 3.082-1.678 1.48-3.701 2.46-5.926 2.752-2.912.383-5.95-.205-8.303-2.02-2.142-1.653-3.442-4.25-3.764-6.91-.374-3.093.309-6.214 2.266-8.675C18.168 2.02 20.821.695 23.674.367M78.353 7.712c-.78-.194-1.723-.298-2.522-.2-1.865.184-3.46.903-4.671 2.365a8 8 0 0 0-1.773 5.85c.185 1.797 1.012 3.583 2.445 4.72 1.506 1.195 3.634 1.531 5.502 1.31 1.659-.196 3.13-.913 4.158-2.252.47-.612.813-1.303 1.082-2.024l-.099-.096c-.159-.157-.323-.318-.537-.383l-.05.022a.25.25 0 0 0-.144.12c-.888 1.306-1.904 2.171-3.493 2.468-1.238.232-2.468.019-3.507-.71-.826-.58-1.478-1.436-1.86-2.367 1.9-1.127 3.964-2.266 6.149-2.714.432-.089.873-.138 1.313-.188.462-.052.923-.104 1.37-.2.3-.066.517-.127.619-.445.255-.799-.148-2.104-.55-2.793-.737-1.26-2.03-2.134-3.432-2.483M76.42 8.983c.355.002.735.028 1.077.122.578.16 1.102.502 1.384 1.044.196.375.348.976.195 1.386-.129.345-.408.58-.716.762-.384.227-.845.373-1.289.513q-.227.071-.443.144c-.775.268-1.539.56-2.278.918a6 6 0 0 0-.61.353c-.427.27-.903.571-1.225.566-.172-.144-.217-.264-.235-.48-.12-1.437.459-3.071 1.388-4.158.68-.794 1.749-1.088 2.752-1.17M92.32 7.575a8.5 8.5 0 0 0-1.666-.063c-1.893.155-3.493.845-4.73 2.318a7.97 7.97 0 0 0-1.818 5.855c.167 1.753.986 3.546 2.366 4.671 1.486 1.212 3.703 1.627 5.574 1.414 1.664-.188 3.16-.97 4.2-2.292a7.1 7.1 0 0 0 1.108-2.036l-.1-.09c-.174-.159-.378-.344-.595-.361-.89 1.341-1.957 2.285-3.573 2.611-1.218.246-2.4.067-3.446-.628-.897-.595-1.55-1.462-2.014-2.424 2.053-1.396 4.579-2.466 7.02-2.918.303-.056.61-.08.918-.104.255-.02.509-.039.76-.077.329-.05.661-.124.735-.499.206-1.057-.21-2.328-.834-3.177-.942-1.282-2.351-1.984-3.905-2.2m-1.803 1.46c.637-.05 1.256-.082 1.87.142.588.215 1.062.64 1.318 1.215.169.378.242.802.082 1.196a1.36 1.36 0 0 1-.45.567c-.463.338-1.605.736-2.599 1.083-.49.171-.943.33-1.262.462-.51.227-1.002.504-1.494.78-.272.152-.544.305-.82.45-.23-1.408-.086-2.842.68-4.075.634-1.019 1.526-1.557 2.675-1.82M43.36 24.456c1.505-.008 5.736-.196 6.878.105.095.131.086.133.075.296-.264.445-.827.624-1.218.942-.225.184-.429.446-.497.733-.252 1.063-.152 2.292-.153 3.384l-.03 4.61c-.008 1.1.026 2.225-.103 3.318-.184 1.564-.874 3.018-2.139 3.992-1.575 1.215-3.775 1.486-5.7 1.224-1.687-.228-3.332-.959-4.381-2.343-.952-1.256-1.193-2.722-.99-4.257a5 5 0 0 1 .218-.792c.359-.957 1.06-1.743 2.008-2.15 1-.428 2.261-.46 3.266-.027.489.21.797.572.977 1.073.11.306.146.568.006.866-.406.383-1.317-.13-1.884.029-.523.146-.922.512-1.172.987-.435.824-.445 1.901-.135 2.768.277.773.904 1.397 1.643 1.739.878.405 2.111.507 3.027.166.71-.264 1.232-.828 1.518-1.522.247-.597.363-1.284.42-1.925.132-1.444.294-10.165-.024-11.109-.336-.995-1.48-1.024-1.742-1.63 0-.146.003-.248.074-.376zM74.477 40.613c.642-1.59 1.197-3.227 1.788-4.837.462-1.254 1.032-2.55 1.315-3.856.06-.278.087-.553.009-.83-.237-.847-1.33-.78-1.578-1.434.035-.144.014-.206.151-.294.253-.162 4.716-.179 5.263-.11.182.024.312.064.432.21.012.315-.064.459-.347.619-.454.256-1.032.387-1.372.809-.536.664-2.553 6.344-3.051 7.636l-1.664 4.316c-.419 1.084-.811 2.263-1.434 3.25-.378.596-.886 1.174-1.502 1.529-.9.516-2.04.612-3.033.332-.773-.218-1.48-.696-1.85-1.423-.292-.576-.364-1.342-.15-1.956.161-.457.532-.836.973-1.033.286-.126.753-.237 1.048-.077.703.383.245 1.645.515 2.319.091.226.224.386.455.479.376.151 1.029-.056 1.368-.22 1.145-.56 1.627-2.36 2.008-3.473-.481.01-1.037.068-1.512-.014a.7.7 0 0 1-.231-.071c-.157-.091-.258-.256-.34-.415-.373-.729-.627-1.576-.919-2.344L69 34.94c-.357-.941-.682-1.921-1.121-2.826-.328-.675-.765-1.364-1.439-1.736-.334-.184-.774-.182-1-.517-.04-.228.002-.367.072-.585 1.206-.05 6.054-.176 6.946.072.049.17.057.406-.01.573-.106.265-.618.346-.854.44-.254.103-.474.257-.572.524-.109.295.036.769.12 1.068.37 1.307.965 2.601 1.455 3.874.613 1.59 1.166 3.24 1.88 4.786M65.941 1.555c1.071-.056 2.087.08 3.022.641.683.41 1.261 1.025 1.434 1.82.093.433.064.89-.187 1.266-.274.408-.825.726-1.31.786-.291.037-.633-.003-.866-.191-.542-.438-.29-1.216-.392-1.814a1.1 1.1 0 0 0-.503-.768c-.421-.265-1.08-.352-1.558-.22-.419.117-.72.412-.912.793-.613 1.21-.274 2.792.105 4.016 1.284.032 2.574.006 3.86.004.003.546-.007 1.082-.048 1.625-1.241 0-2.485-.02-3.725.028-.079 1.275-.048 2.57-.056 3.848-.012 1.913-.2 4.025.238 5.886.067.172.14.335.23.497.387.703.625.628 1.313.855.234.077.37.172.472.39a.6.6 0 0 1-.147.405c-.06.038-.085.06-.165.075-.25.048-6.237.022-6.576-.034-.233-.04-.396-.09-.543-.288.097-.565.726-.525 1.104-.89.433-.42.651-.98.772-1.56.262-1.263.16-2.694.156-3.983l-.025-5.218-2.449-.01c-.05-.538-.053-1.083-.067-1.623l2.439-.002c-.12-.364-.24-.743-.292-1.125-.155-1.127.107-2.272.8-3.185.92-1.213 2.401-1.834 3.876-2.024"/>
      <path d="M55.806 1.556c.986-.083 1.934-.01 2.819.474.707.387 1.312 1.026 1.529 1.817.134.49.149 1.111-.128 1.558-.197.316-.524.5-.884.568-.328.062-.762.06-1.035-.159-.518-.416-.172-1.215-.287-1.766-.07-.332-.337-.613-.628-.772-.457-.251-1.116-.282-1.61-.133-.411.124-.722.392-.91.777-.546 1.115-.132 2.823.243 3.933 1.23.072 2.486.016 3.72.022.031.55.003 1.09-.03 1.639q-1.879-.004-3.757.013-.086 2.35-.07 4.7c-.004 1.614-.164 3.427.309 4.984.52 1.14 1.6 1.332 1.855 1.941-.04.111-.023.13-.133.195-.395.236-6.391.19-6.927.063-.02-.073-.048-.157-.051-.233-.016-.475.733-.675 1.021-.96.401-.395.6-1.128.693-1.674.209-1.228.142-2.58.141-3.824l-.01-5.195-2.443-.01A22 22 0 0 1 49.2 7.89q1.17.012 2.337-.003c-.12-.397-.247-.795-.309-1.206-.166-1.118.077-2.223.76-3.132.919-1.22 2.348-1.787 3.819-1.993"/>
    </g>
  </g>
  <defs>
    <clipPath id="a">
      <path fill="#fff" d="M0 0h112v48H0z"/>
    </clipPath>
    <clipPath id="b">
      <path fill="#fff" d="M14 .292h83.355v47.815H14z"/>
    </clipPath>
  </defs>
</svg>
